<svg id="Layer_1" data-name="Layer 1" xmlns="http://www.w3.org/2000/svg" viewBox="0 0 1296 231.18">
  <rect class="cls-1" fill="#855288" x="173.82" y="128.65" width="26.78" height="79.02" rx="3.35" />
  <rect class="cls-1" fill="#855288" x="4.03" y="128.65" width="26.78" height="79.02" rx="5.89" />
  <rect class="cls-2" fill="#61a2ba" x="34.07" y="49.63" width="139.75" height="173.71" rx="19.85" />
  <path class="cls-3"
    fill="#5482a2"
    d="M472.29,353.34a10.13,10.13,0,0,1-10.13,10.12H332.53s91.43-6.53,113.64-28.08,22.2-134.53,22.2-134.53Z"
    transform="translate(-298.47 -140.12)" />
  <path class="cls-4"
    fill="#161617"
    d="M499,267.31a17.94,17.94,0,0,0-12.71-5.26h-1.13a17.91,17.91,0,0,0-7,1.43L477,208.33h0a26.39,26.39,0,0,0-26.39-26.27h-2.15a46.82,46.82,0,0,0-93.13,0h-4.1a26.39,26.39,0,0,0-26.39,26.27h0l-1.18,54.79a18,18,0,0,0-6.06-1.07h-1.14a18,18,0,0,0-18,18V334.8a18,18,0,0,0,18,18h1.14a17.13,17.13,0,0,0,5.27-.81,26.38,26.38,0,0,0,25.44,19.35H453.5A26.41,26.41,0,0,0,479,351.61a16.8,16.8,0,0,0,6.15,1.15h1.13a18,18,0,0,0,18-18V280A18,18,0,0,0,499,267.31ZM377,162.11a35.12,35.12,0,0,1,59.61,19.95H367.09A35,35,0,0,1,377,162.11ZM319.72,340.63a5.17,5.17,0,0,1-2.15.43h-1.14a6.27,6.27,0,0,1-6.26-6.26V280a6.28,6.28,0,0,1,6.26-6.26h1.14a6.23,6.23,0,0,1,4.43,1.84,6.17,6.17,0,0,1,1.32,2L322,338.38a5.31,5.31,0,0,1-.75,1.1A4.68,4.68,0,0,1,319.72,340.63Zm133.78,19H348.28a14.7,14.7,0,0,1-14.7-14.67l.09-4.24c.58-1.84,1.69-63.4,1.39-64.7l1.45-67.46v-.06a14.68,14.68,0,0,1,14.69-14.69h99.38a14.68,14.68,0,0,1,14.69,14.69v.07l2.93,136.39a14.7,14.7,0,0,1-14.7,14.67Zm39.08-24.79a6.25,6.25,0,0,1-6.26,6.26h-1.13a5.18,5.18,0,0,1-2.16-.43,4.87,4.87,0,0,1-2.17-2,7.52,7.52,0,0,1-1-3.81v-.06l-1-54.74a6.27,6.27,0,0,1,6.26-6.25h1.13a6.27,6.27,0,0,1,6.26,6.26Z"
    transform="translate(-298.47 -140.12)" />
  <path class="cls-4"
    fill="#161617"
    d="M448.69,253.27H350.17a5.85,5.85,0,1,0,0,11.7h78v13.17a5.86,5.86,0,0,0,11.71,0V265h8.78a5.85,5.85,0,1,0,0-11.7Z"
    transform="translate(-298.47 -140.12)" />
  <path class="cls-4"
    fill="#161617"
    d="M571.78,340.05A31.75,31.75,0,0,1,556,336.19a25.29,25.29,0,0,1-10.35-10.43v3.45q0,10.52-10,10.51-10.18,0-10.18-10.51V231.65q0-10.34,10.18-10.34,10.35,0,10.35,10.34v38.27a26.43,26.43,0,0,1,10.43-9.77,31.6,31.6,0,0,1,15.35-3.7,33.47,33.47,0,0,1,18.56,5.09,34.24,34.24,0,0,1,12.32,14.37q4.44,9.29,4.43,22.26,0,12.81-4.43,22.25a32.6,32.6,0,0,1-30.88,19.63ZM566,324.45a18.34,18.34,0,0,0,14.78-6.66q5.58-6.65,5.58-19.62,0-13.14-5.58-19.63T566,272.06q-9.21,0-14.79,6.48t-5.58,19.63q0,13,5.58,19.62A18.33,18.33,0,0,0,566,324.45Z"
    transform="translate(-298.47 -140.12)" />
  <path class="cls-4"
    fill="#161617"
    d="M634.52,339.72q-10.51,0-10.51-10.51V267.13q0-10.35,10-10.35t10,10.35v5.09q5.91-14.13,25.29-15.77,7-.81,7.88,8.05t-8.54,9.69l-3.61.33q-20.21,2-20.2,20.69v34Q644.87,339.73,634.52,339.72Z"
    transform="translate(-298.47 -140.12)" />
  <path class="cls-4"
    fill="#161617"
    d="M717.46,340.05q-29.57,0-29.56-33.18V267.13q0-10.35,10.18-10.35,10.35,0,10.35,10.35V307.2q0,8.55,3.45,12.65t11,4.1a17.56,17.56,0,0,0,13.47-5.66q5.25-5.67,5.25-15V267.13q0-10.35,10.18-10.35,10.35,0,10.35,10.35v62.08q0,10.52-10,10.51t-10-10.51v-2.79Q734.05,340.05,717.46,340.05Z"
    transform="translate(-298.47 -140.12)" />
  <path class="cls-4"
    fill="#161617"
    d="M793.66,339.72q-10.18,0-10.18-10.51V267.13q0-10.35,10-10.35t10,10.35v3.45a27.26,27.26,0,0,1,11.08-10.51,33.62,33.62,0,0,1,15.69-3.62q28.41,0,28.41,33v39.75q0,10.52-10.18,10.51-10.35,0-10.35-10.51V290.45q0-9.36-3.53-13.63c-2.36-2.85-6-4.27-10.92-4.27q-9,0-14.37,5.66t-5.34,15v36Q804,339.73,793.66,339.72Z"
    transform="translate(-298.47 -140.12)" />
  <path class="cls-4"
    fill="#161617"
    d="M916.18,340.05q-12.48,0-21.68-5.09a35.5,35.5,0,0,1-14.29-14.54q-5.09-9.44-5.09-22.25T880.21,276a35.72,35.72,0,0,1,14.29-14.46q9.19-5.09,21.68-5.09t21.68,5.09A35.72,35.72,0,0,1,952.15,276q5.08,9.36,5.09,22.17t-5.09,22.25A35.5,35.5,0,0,1,937.86,335Q928.67,340,916.18,340.05Zm0-15.6A18.33,18.33,0,0,0,931,317.79q5.58-6.65,5.59-19.62,0-13.14-5.59-19.63t-14.78-6.48q-9.2,0-14.78,6.48t-5.58,19.63q0,13,5.58,19.62A18.33,18.33,0,0,0,916.18,324.45Z"
    transform="translate(-298.47 -140.12)" />
  <path class="cls-4"
    fill="#161617"
    d="M1005,340.05a32.57,32.57,0,0,1-30.87-19.63q-4.44-9.44-4.44-22.25,0-13,4.44-22.26a34,34,0,0,1,12.39-14.37,33.6,33.6,0,0,1,18.48-5.09,31.61,31.61,0,0,1,15.44,3.78,25.4,25.4,0,0,1,10.35,10v-38.6q0-10.34,10.18-10.34,10.35,0,10.35,10.34v97.56q0,10.52-10.19,10.51T1031,329.21v-3.45a25.29,25.29,0,0,1-10.35,10.43A31.41,31.41,0,0,1,1005,340.05Zm5.75-15.6a18.33,18.33,0,0,0,14.78-6.66q5.58-6.65,5.58-19.62,0-13.14-5.58-19.63t-14.78-6.48q-9.19,0-14.78,6.48t-5.59,19.63q0,13,5.59,19.62A18.33,18.33,0,0,0,1010.78,324.45Z"
    transform="translate(-298.47 -140.12)" />
  <path class="cls-4"
    fill="#161617"
    d="M1101.76,340.05q-29.55,0-29.56-33.18V267.13q0-10.35,10.18-10.35,10.35,0,10.35,10.35V307.2q0,8.55,3.45,12.65t11,4.1a17.53,17.53,0,0,0,13.47-5.66q5.25-5.67,5.26-15V267.13q0-10.35,10.18-10.35,10.35,0,10.35,10.35v62.08q0,10.52-10,10.51t-10-10.51v-2.79Q1118.34,340.05,1101.76,340.05Z"
    transform="translate(-298.47 -140.12)" />
  <path class="cls-4"
    fill="#161617"
    d="M1178,369.28q-10.18,0-10.18-10.34V267.13q0-10.35,10-10.35,10.18,0,10.19,10.35v3.45a25.68,25.68,0,0,1,10.34-10.27,31.79,31.79,0,0,1,15.77-3.86,33.62,33.62,0,0,1,18.48,5.09,34.06,34.06,0,0,1,12.4,14.37q4.43,9.29,4.43,22.26,0,12.81-4.43,22.25A34,34,0,0,1,1232.66,335a33.49,33.49,0,0,1-18.56,5.09,31.66,31.66,0,0,1-15.36-3.7,26,26,0,0,1-10.42-9.93v32.52Q1188.32,369.28,1178,369.28Zm30.38-44.83a18.33,18.33,0,0,0,14.78-6.66q5.58-6.65,5.59-19.62,0-13.14-5.59-19.63t-14.78-6.48q-9.19,0-14.78,6.48T1188,298.17q0,13,5.58,19.62A18.33,18.33,0,0,0,1208.35,324.45Z"
    transform="translate(-298.47 -140.12)" />
  <path class="cls-4"
    fill="#161617"
    d="M1273.23,339.23a12,12,0,0,1-9-3.45,12.19,12.19,0,0,1-3.36-8.87,11.68,11.68,0,0,1,3.36-8.62,12.1,12.1,0,0,1,9-3.37q5.74,0,9,3.37a12,12,0,0,1,3.2,8.62,12.55,12.55,0,0,1-3.2,8.87Q1279,339.23,1273.23,339.23Z"
    transform="translate(-298.47 -140.12)" />
  <path class="cls-4"
    fill="#161617"
    d="M1338.26,340.05q-12.65,0-22-5.17a35.62,35.62,0,0,1-14.46-14.7q-5.08-9.53-5.09-22.34t5.09-22.09a35,35,0,0,1,14.46-14.29q9.36-5,22-5a52.16,52.16,0,0,1,11.75,1.48,39.83,39.83,0,0,1,11.9,4.93,7.47,7.47,0,0,1,3.86,5.09,8.62,8.62,0,0,1-.82,5.75,8.14,8.14,0,0,1-4.11,3.78c-1.8.76-3.85.49-6.15-.83a29.77,29.77,0,0,0-14.62-4.27q-10.68,0-16.51,6.66t-5.83,19q0,12.17,5.83,19.14t16.51,7a30.56,30.56,0,0,0,14.62-4.11q3.45-2,6.07-.82a7.08,7.08,0,0,1,3.78,3.86,9.37,9.37,0,0,1,.49,5.75,7.88,7.88,0,0,1-3.77,5,40.5,40.5,0,0,1-11.5,4.76A48.45,48.45,0,0,1,1338.26,340.05Z"
    transform="translate(-298.47 -140.12)" />
  <path class="cls-4"
    fill="#161617"
    d="M1413.65,340.05q-12.5,0-21.68-5.09a35.37,35.37,0,0,1-14.29-14.54q-5.1-9.44-5.09-22.25t5.09-22.17A35.6,35.6,0,0,1,1392,261.54q9.19-5.09,21.68-5.09t21.67,5.09A35.66,35.66,0,0,1,1449.61,276q5.1,9.36,5.09,22.17t-5.09,22.25A35.43,35.43,0,0,1,1435.32,335Q1426.13,340,1413.65,340.05Zm0-15.6a18.34,18.34,0,0,0,14.78-6.66q5.58-6.65,5.58-19.62,0-13.14-5.58-19.63t-14.78-6.48q-9.21,0-14.79,6.48t-5.58,19.63q0,13,5.58,19.62A18.35,18.35,0,0,0,1413.65,324.45Z"
    transform="translate(-298.47 -140.12)" />
  <path class="cls-4"
    fill="#161617"
    d="M1482.13,339.72q-10.19,0-10.18-10.51V267.13q0-10.35,10-10.35t10,10.35v3.28a26.16,26.16,0,0,1,10-10.26,29,29,0,0,1,14.78-3.7q18.08,0,23.65,15.77a28,28,0,0,1,10.84-11.58,31,31,0,0,1,16.1-4.19q27.09,0,27.1,33v39.75q0,10.52-10.35,10.51-10.18,0-10.18-10.51V290.29c0-6.14-1-10.62-3-13.47s-5.45-4.27-10.27-4.27q-8,0-12.64,5.66t-4.6,15.69v35.31q0,10.52-10.18,10.51-10.35,0-10.35-10.51V290.29c0-6.14-1-10.62-3-13.47s-5.39-4.27-10.1-4.27q-8,0-12.64,5.66t-4.6,15.69v35.31Q1492.48,339.73,1482.13,339.72Z"
    transform="translate(-298.47 -140.12)" />
</svg>